<mxfile host="Electron" modified="2023-10-16T12:09:36.399Z" agent="Mozilla/5.0 (Windows NT 10.0; Win64; x64) AppleWebKit/537.36 (KHTML, like Gecko) draw.io/21.6.8 Chrome/114.0.5735.289 Electron/25.5.0 Safari/537.36" etag="82itoRuDN5YShT2R0whG" version="21.6.8" type="device">
  <diagram id="WWQHnLFG7N33gB0Sfc6-" name="Page-1">
    <mxGraphModel dx="1434" dy="844" grid="1" gridSize="10" guides="1" tooltips="1" connect="1" arrows="1" fold="1" page="1" pageScale="1" pageWidth="850" pageHeight="409" math="1" shadow="0">
      <root>
        <mxCell id="0" />
        <mxCell id="1" parent="0" />
        <mxCell id="cDRfMIMBLAV0W6ACRIVu-2" value="" style="rounded=0;whiteSpace=wrap;html=1;fillColor=none;" parent="1" vertex="1">
          <mxGeometry x="25" y="31.09000000000002" width="90" height="60" as="geometry" />
        </mxCell>
        <mxCell id="cDRfMIMBLAV0W6ACRIVu-3" style="edgeStyle=orthogonalEdgeStyle;rounded=0;orthogonalLoop=1;jettySize=auto;html=1;exitX=1;exitY=0.5;exitDx=0;exitDy=0;entryX=0;entryY=0.5;entryDx=0;entryDy=0;" parent="1" source="cDRfMIMBLAV0W6ACRIVu-4" target="cDRfMIMBLAV0W6ACRIVu-5" edge="1">
          <mxGeometry relative="1" as="geometry" />
        </mxCell>
        <mxCell id="cDRfMIMBLAV0W6ACRIVu-4" value="" style="rounded=0;whiteSpace=wrap;html=1;fillColor=none;" parent="1" vertex="1">
          <mxGeometry x="585" y="31.090000000000032" width="70" height="60" as="geometry" />
        </mxCell>
        <mxCell id="cDRfMIMBLAV0W6ACRIVu-5" value="" style="triangle;whiteSpace=wrap;html=1;fillColor=#FF3333;" parent="1" vertex="1">
          <mxGeometry x="700.71" y="16.090000000000032" width="70" height="90" as="geometry" />
        </mxCell>
        <mxCell id="cDRfMIMBLAV0W6ACRIVu-6" style="edgeStyle=orthogonalEdgeStyle;rounded=0;orthogonalLoop=1;jettySize=auto;html=1;exitX=0.5;exitY=1;exitDx=0;exitDy=0;entryX=0;entryY=0.5;entryDx=0;entryDy=0;" parent="1" source="cDRfMIMBLAV0W6ACRIVu-7" target="cDRfMIMBLAV0W6ACRIVu-4" edge="1">
          <mxGeometry relative="1" as="geometry" />
        </mxCell>
        <mxCell id="IMZThxllyC-tqZNlHwgO-10" style="edgeStyle=orthogonalEdgeStyle;rounded=0;orthogonalLoop=1;jettySize=auto;html=1;exitX=0.5;exitY=0;exitDx=0;exitDy=0;entryX=1;entryY=0.5;entryDx=0;entryDy=0;startArrow=classic;startFill=1;endArrow=none;endFill=0;" parent="1" source="cDRfMIMBLAV0W6ACRIVu-7" target="cDRfMIMBLAV0W6ACRIVu-2" edge="1">
          <mxGeometry relative="1" as="geometry" />
        </mxCell>
        <mxCell id="cDRfMIMBLAV0W6ACRIVu-7" value="" style="verticalLabelPosition=bottom;verticalAlign=top;html=1;shape=offPageConnector;rounded=0;size=0.35542292652809415;rotation=-90;fillColor=none;" parent="1" vertex="1">
          <mxGeometry x="450" y="15" width="66.1" height="92.18" as="geometry" />
        </mxCell>
        <mxCell id="cDRfMIMBLAV0W6ACRIVu-8" value="" style="rounded=0;whiteSpace=wrap;html=1;fillColor=none;" parent="1" vertex="1">
          <mxGeometry x="25" y="317.8799999999999" width="90" height="60" as="geometry" />
        </mxCell>
        <mxCell id="cDRfMIMBLAV0W6ACRIVu-9" style="edgeStyle=orthogonalEdgeStyle;rounded=0;orthogonalLoop=1;jettySize=auto;html=1;exitX=0;exitY=0.5;exitDx=0;exitDy=0;entryX=0.5;entryY=0;entryDx=0;entryDy=0;" parent="1" source="cDRfMIMBLAV0W6ACRIVu-10" target="cDRfMIMBLAV0W6ACRIVu-12" edge="1">
          <mxGeometry relative="1" as="geometry" />
        </mxCell>
        <mxCell id="cDRfMIMBLAV0W6ACRIVu-10" value="" style="rounded=0;whiteSpace=wrap;html=1;fillColor=none;" parent="1" vertex="1">
          <mxGeometry x="585" y="317.8799999999999" width="70" height="60" as="geometry" />
        </mxCell>
        <mxCell id="cDRfMIMBLAV0W6ACRIVu-11" style="edgeStyle=orthogonalEdgeStyle;rounded=0;orthogonalLoop=1;jettySize=auto;html=1;exitX=0.5;exitY=1;exitDx=0;exitDy=0;entryX=1;entryY=0.5;entryDx=0;entryDy=0;" parent="1" source="cDRfMIMBLAV0W6ACRIVu-12" target="cDRfMIMBLAV0W6ACRIVu-17" edge="1">
          <mxGeometry relative="1" as="geometry" />
        </mxCell>
        <mxCell id="cDRfMIMBLAV0W6ACRIVu-12" value="" style="verticalLabelPosition=bottom;verticalAlign=top;html=1;shape=offPageConnector;rounded=0;size=0.35542292652809415;rotation=90;fillColor=none;" parent="1" vertex="1">
          <mxGeometry x="450" y="301.78999999999996" width="66.1" height="92.18" as="geometry" />
        </mxCell>
        <mxCell id="cDRfMIMBLAV0W6ACRIVu-13" style="edgeStyle=orthogonalEdgeStyle;rounded=0;orthogonalLoop=1;jettySize=auto;html=1;exitX=0.5;exitY=1;exitDx=0;exitDy=0;entryX=0.5;entryY=0;entryDx=0;entryDy=0;" parent="1" source="cDRfMIMBLAV0W6ACRIVu-15" target="cDRfMIMBLAV0W6ACRIVu-17" edge="1">
          <mxGeometry relative="1" as="geometry" />
        </mxCell>
        <mxCell id="cDRfMIMBLAV0W6ACRIVu-15" value="" style="rounded=0;whiteSpace=wrap;html=1;fillColor=none;fontStyle=1" parent="1" vertex="1">
          <mxGeometry x="290" y="182.00000000000003" width="90" height="60" as="geometry" />
        </mxCell>
        <mxCell id="cDRfMIMBLAV0W6ACRIVu-16" style="edgeStyle=orthogonalEdgeStyle;rounded=0;orthogonalLoop=1;jettySize=auto;html=1;exitX=0;exitY=0.5;exitDx=0;exitDy=0;entryX=1;entryY=0.5;entryDx=0;entryDy=0;startArrow=none;" parent="1" source="cDRfMIMBLAV0W6ACRIVu-55" target="cDRfMIMBLAV0W6ACRIVu-8" edge="1">
          <mxGeometry relative="1" as="geometry" />
        </mxCell>
        <mxCell id="cDRfMIMBLAV0W6ACRIVu-17" value="" style="ellipse;whiteSpace=wrap;html=1;aspect=fixed;fillColor=none;" parent="1" vertex="1">
          <mxGeometry x="311.61" y="324.48" width="46.79" height="46.79" as="geometry" />
        </mxCell>
        <mxCell id="cDRfMIMBLAV0W6ACRIVu-18" value="" style="endArrow=classic;html=1;rounded=0;entryX=0.5;entryY=0;entryDx=0;entryDy=0;startArrow=none;" parent="1" source="cDRfMIMBLAV0W6ACRIVu-59" target="FfYh_yq3HZvGGu9d9mUg-1" edge="1">
          <mxGeometry width="50" height="50" relative="1" as="geometry">
            <mxPoint x="245" y="45" as="sourcePoint" />
            <mxPoint x="495" y="271.0899999999999" as="targetPoint" />
          </mxGeometry>
        </mxCell>
        <mxCell id="cDRfMIMBLAV0W6ACRIVu-19" value="" style="endArrow=none;html=1;rounded=0;" parent="1" edge="1">
          <mxGeometry width="50" height="50" relative="1" as="geometry">
            <mxPoint x="335" y="161.09000000000003" as="sourcePoint" />
            <mxPoint x="335" y="161.09000000000003" as="targetPoint" />
          </mxGeometry>
        </mxCell>
        <mxCell id="cDRfMIMBLAV0W6ACRIVu-22" value="" style="endArrow=none;html=1;rounded=0;entryX=1;entryY=0.5;entryDx=0;entryDy=0;" parent="1" target="cDRfMIMBLAV0W6ACRIVu-5" edge="1">
          <mxGeometry width="50" height="50" relative="1" as="geometry">
            <mxPoint x="805" y="61" as="sourcePoint" />
            <mxPoint x="815" y="61.79000000000008" as="targetPoint" />
          </mxGeometry>
        </mxCell>
        <mxCell id="cDRfMIMBLAV0W6ACRIVu-23" value="" style="endArrow=none;html=1;rounded=0;" parent="1" edge="1">
          <mxGeometry width="50" height="50" relative="1" as="geometry">
            <mxPoint x="805" y="61.09000000000003" as="sourcePoint" />
            <mxPoint x="835" y="41.09000000000003" as="targetPoint" />
          </mxGeometry>
        </mxCell>
        <mxCell id="cDRfMIMBLAV0W6ACRIVu-24" value="" style="endArrow=none;html=1;rounded=0;" parent="1" edge="1">
          <mxGeometry width="50" height="50" relative="1" as="geometry">
            <mxPoint x="805" y="61.39000000000004" as="sourcePoint" />
            <mxPoint x="835" y="81.09000000000009" as="targetPoint" />
          </mxGeometry>
        </mxCell>
        <mxCell id="cDRfMIMBLAV0W6ACRIVu-25" value="" style="endArrow=none;html=1;rounded=0;entryX=1;entryY=0.5;entryDx=0;entryDy=0;" parent="1" target="cDRfMIMBLAV0W6ACRIVu-10" edge="1">
          <mxGeometry width="50" height="50" relative="1" as="geometry">
            <mxPoint x="805" y="348" as="sourcePoint" />
            <mxPoint x="790.71" y="347.18000000000006" as="targetPoint" />
          </mxGeometry>
        </mxCell>
        <mxCell id="cDRfMIMBLAV0W6ACRIVu-26" value="" style="endArrow=none;html=1;rounded=0;" parent="1" edge="1">
          <mxGeometry width="50" height="50" relative="1" as="geometry">
            <mxPoint x="805" y="347.8800000000001" as="sourcePoint" />
            <mxPoint x="835" y="327.8800000000001" as="targetPoint" />
          </mxGeometry>
        </mxCell>
        <mxCell id="cDRfMIMBLAV0W6ACRIVu-27" value="" style="endArrow=none;html=1;rounded=0;" parent="1" edge="1">
          <mxGeometry width="50" height="50" relative="1" as="geometry">
            <mxPoint x="805" y="348.18000000000006" as="sourcePoint" />
            <mxPoint x="835" y="367.8800000000001" as="targetPoint" />
          </mxGeometry>
        </mxCell>
        <mxCell id="cDRfMIMBLAV0W6ACRIVu-28" value="" style="endArrow=none;html=1;rounded=0;strokeWidth=2;" parent="1" edge="1">
          <mxGeometry width="50" height="50" relative="1" as="geometry">
            <mxPoint x="350" y="311.0899999999999" as="sourcePoint" />
            <mxPoint x="370" y="311.0899999999999" as="targetPoint" />
          </mxGeometry>
        </mxCell>
        <mxCell id="cDRfMIMBLAV0W6ACRIVu-29" value="" style="endArrow=none;html=1;rounded=0;strokeWidth=2;" parent="1" edge="1">
          <mxGeometry width="50" height="50" relative="1" as="geometry">
            <mxPoint x="370" y="331.0899999999999" as="sourcePoint" />
            <mxPoint x="390" y="331.0899999999999" as="targetPoint" />
          </mxGeometry>
        </mxCell>
        <mxCell id="cDRfMIMBLAV0W6ACRIVu-30" value="" style="endArrow=none;html=1;rounded=0;strokeWidth=2;" parent="1" edge="1">
          <mxGeometry width="50" height="50" relative="1" as="geometry">
            <mxPoint x="380" y="341.0899999999999" as="sourcePoint" />
            <mxPoint x="380" y="321.0899999999999" as="targetPoint" />
          </mxGeometry>
        </mxCell>
        <mxCell id="cDRfMIMBLAV0W6ACRIVu-31" value="" style="endArrow=none;html=1;rounded=0;strokeWidth=2;" parent="1" edge="1">
          <mxGeometry width="50" height="50" relative="1" as="geometry">
            <mxPoint x="325" y="348.5799999999999" as="sourcePoint" />
            <mxPoint x="345" y="348.5799999999999" as="targetPoint" />
          </mxGeometry>
        </mxCell>
        <mxCell id="cDRfMIMBLAV0W6ACRIVu-32" value="" style="endArrow=none;html=1;rounded=0;strokeWidth=2;" parent="1" edge="1">
          <mxGeometry width="50" height="50" relative="1" as="geometry">
            <mxPoint x="335" y="358.5799999999999" as="sourcePoint" />
            <mxPoint x="335" y="338.5799999999999" as="targetPoint" />
          </mxGeometry>
        </mxCell>
        <mxCell id="cDRfMIMBLAV0W6ACRIVu-33" value="&lt;font style=&quot;font-size: 24px&quot; face=&quot;Times New Roman&quot;&gt;TX&lt;/font&gt;" style="text;html=1;strokeColor=none;fillColor=none;align=center;verticalAlign=middle;whiteSpace=wrap;rounded=0;fontStyle=1" parent="1" vertex="1">
          <mxGeometry x="40" y="46.09000000000002" width="60" height="30" as="geometry" />
        </mxCell>
        <mxCell id="cDRfMIMBLAV0W6ACRIVu-34" value="&lt;font style=&quot;font-size: 24px&quot; face=&quot;Times New Roman&quot;&gt;RX&lt;/font&gt;" style="text;html=1;strokeColor=none;fillColor=none;align=center;verticalAlign=middle;whiteSpace=wrap;rounded=0;fontStyle=1" parent="1" vertex="1">
          <mxGeometry x="40" y="332.8799999999999" width="60" height="30" as="geometry" />
        </mxCell>
        <mxCell id="cDRfMIMBLAV0W6ACRIVu-35" value="&lt;font style=&quot;font-size: 24px&quot; face=&quot;Times New Roman&quot;&gt;DAC&lt;/font&gt;" style="text;html=1;strokeColor=none;fillColor=none;align=center;verticalAlign=middle;whiteSpace=wrap;rounded=0;fontStyle=1" parent="1" vertex="1">
          <mxGeometry x="445" y="46.79000000000002" width="60" height="30" as="geometry" />
        </mxCell>
        <mxCell id="cDRfMIMBLAV0W6ACRIVu-36" value="&lt;font style=&quot;font-size: 24px&quot; face=&quot;Times New Roman&quot;&gt;ADC&lt;/font&gt;" style="text;html=1;strokeColor=none;fillColor=none;align=center;verticalAlign=middle;whiteSpace=wrap;rounded=0;fontStyle=1" parent="1" vertex="1">
          <mxGeometry x="460" y="333.5799999999999" width="60" height="30" as="geometry" />
        </mxCell>
        <mxCell id="cDRfMIMBLAV0W6ACRIVu-37" value="&lt;font style=&quot;font-size: 24px&quot; face=&quot;Times New Roman&quot;&gt;RF&lt;/font&gt;" style="text;html=1;strokeColor=none;fillColor=none;align=center;verticalAlign=middle;whiteSpace=wrap;rounded=0;fontStyle=1" parent="1" vertex="1">
          <mxGeometry x="590" y="46.09000000000003" width="60" height="30" as="geometry" />
        </mxCell>
        <mxCell id="cDRfMIMBLAV0W6ACRIVu-38" value="&lt;font style=&quot;font-size: 24px&quot; face=&quot;Times New Roman&quot;&gt;RF&lt;/font&gt;" style="text;html=1;strokeColor=none;fillColor=none;align=center;verticalAlign=middle;whiteSpace=wrap;rounded=0;fontStyle=1" parent="1" vertex="1">
          <mxGeometry x="590" y="332.17999999999984" width="60" height="30" as="geometry" />
        </mxCell>
        <mxCell id="cDRfMIMBLAV0W6ACRIVu-39" value="&lt;font style=&quot;font-size: 24px&quot; face=&quot;Times New Roman&quot;&gt;&lt;b&gt;PA&lt;/b&gt;&lt;/font&gt;" style="text;html=1;strokeColor=none;fillColor=none;align=center;verticalAlign=middle;whiteSpace=wrap;rounded=0;" parent="1" vertex="1">
          <mxGeometry x="695" y="45.39000000000004" width="60" height="30" as="geometry" />
        </mxCell>
        <mxCell id="cDRfMIMBLAV0W6ACRIVu-40" value="" style="endArrow=classic;html=1;rounded=0;dashed=1;fontSize=24;strokeWidth=4;curved=1;edgeStyle=orthogonalEdgeStyle;strokeColor=#1717FF;" parent="1" edge="1">
          <mxGeometry width="50" height="50" relative="1" as="geometry">
            <mxPoint x="795" y="66.79000000000002" as="sourcePoint" />
            <mxPoint x="755" y="336.78999999999996" as="targetPoint" />
            <Array as="points">
              <mxPoint x="795" y="216.78999999999996" />
              <mxPoint x="795" y="216.78999999999996" />
            </Array>
          </mxGeometry>
        </mxCell>
        <mxCell id="cDRfMIMBLAV0W6ACRIVu-41" value="&lt;font face=&quot;Times New Roman&quot;&gt;Leakage&lt;/font&gt;" style="edgeLabel;html=1;align=center;verticalAlign=middle;resizable=0;points=[];fontSize=24;labelBackgroundColor=none;fontStyle=1" parent="cDRfMIMBLAV0W6ACRIVu-40" vertex="1" connectable="0">
          <mxGeometry x="-0.1806" y="2" relative="1" as="geometry">
            <mxPoint x="-59" y="-10" as="offset" />
          </mxGeometry>
        </mxCell>
        <mxCell id="cDRfMIMBLAV0W6ACRIVu-42" value="&lt;font face=&quot;Times New Roman&quot;&gt;&lt;span style=&quot;font-size: 24px&quot;&gt;&lt;i&gt;$$f(\cdot)$$&lt;/i&gt;&lt;/span&gt;&lt;/font&gt;" style="text;html=1;strokeColor=none;fillColor=none;align=center;verticalAlign=middle;whiteSpace=wrap;rounded=0;fontStyle=1" parent="1" vertex="1">
          <mxGeometry x="305" y="196.99999999999997" width="60" height="30" as="geometry" />
        </mxCell>
        <mxCell id="cDRfMIMBLAV0W6ACRIVu-43" value="" style="endArrow=classic;html=1;rounded=0;fontSize=24;strokeColor=#000000;strokeWidth=3;startArrow=none;exitX=1;exitY=0.893;exitDx=0;exitDy=0;exitPerimeter=0;" parent="1" source="FfYh_yq3HZvGGu9d9mUg-1" edge="1">
          <mxGeometry width="50" height="50" relative="1" as="geometry">
            <mxPoint x="215" y="235" as="sourcePoint" />
            <mxPoint x="375" y="155" as="targetPoint" />
            <Array as="points">
              <mxPoint x="275" y="235" />
            </Array>
          </mxGeometry>
        </mxCell>
        <mxCell id="cDRfMIMBLAV0W6ACRIVu-45" value="" style="endArrow=none;html=1;rounded=0;fontSize=24;strokeColor=#000000;strokeWidth=3;" parent="1" edge="1">
          <mxGeometry width="50" height="50" relative="1" as="geometry">
            <mxPoint x="255" y="346.0899999999999" as="sourcePoint" />
            <mxPoint x="255.09709662154978" y="346.19941932430993" as="targetPoint" />
            <Array as="points" />
          </mxGeometry>
        </mxCell>
        <mxCell id="cDRfMIMBLAV0W6ACRIVu-46" value="&lt;span style=&quot;font-size: 24px&quot;&gt;&lt;font face=&quot;Times New Roman&quot;&gt;$$x$$&lt;/font&gt;&lt;/span&gt;" style="text;html=1;strokeColor=none;fillColor=none;align=center;verticalAlign=middle;whiteSpace=wrap;rounded=0;fontStyle=1" parent="1" vertex="1">
          <mxGeometry x="150" y="26.79000000000002" width="60" height="30" as="geometry" />
        </mxCell>
        <mxCell id="cDRfMIMBLAV0W6ACRIVu-47" value="&lt;span style=&quot;font-size: 24px&quot;&gt;&lt;font face=&quot;Times New Roman&quot;&gt;$$r+d$$&lt;/font&gt;&lt;/span&gt;" style="text;html=1;strokeColor=none;fillColor=none;align=center;verticalAlign=middle;whiteSpace=wrap;rounded=0;fontStyle=1" parent="1" vertex="1">
          <mxGeometry x="365" y="352.86999999999983" width="60" height="30" as="geometry" />
        </mxCell>
        <mxCell id="cDRfMIMBLAV0W6ACRIVu-49" value="&lt;span style=&quot;font-size: 24px&quot;&gt;&lt;font face=&quot;Times New Roman&quot;&gt;$$y$$&lt;/font&gt;&lt;/span&gt;" style="text;html=1;strokeColor=none;fillColor=none;align=center;verticalAlign=middle;whiteSpace=wrap;rounded=0;fontStyle=1" parent="1" vertex="1">
          <mxGeometry x="320" y="255.90999999999985" width="60" height="30" as="geometry" />
        </mxCell>
        <mxCell id="cDRfMIMBLAV0W6ACRIVu-59" value="" style="ellipse;whiteSpace=wrap;html=1;aspect=fixed;fillColor=#000000;" parent="1" vertex="1">
          <mxGeometry x="175" y="56.79000000000002" width="10" height="10" as="geometry" />
        </mxCell>
        <mxCell id="FfYh_yq3HZvGGu9d9mUg-1" value="" style="rounded=0;whiteSpace=wrap;html=1;fillColor=none;fontStyle=1" parent="1" vertex="1">
          <mxGeometry x="135" y="181.09000000000003" width="90" height="60" as="geometry" />
        </mxCell>
        <mxCell id="FfYh_yq3HZvGGu9d9mUg-2" value="&lt;span style=&quot;font-size: 24px&quot;&gt;&lt;font face=&quot;Times New Roman&quot;&gt;AD&lt;/font&gt;&lt;/span&gt;" style="text;html=1;strokeColor=none;fillColor=none;align=center;verticalAlign=middle;whiteSpace=wrap;rounded=0;fontStyle=1" parent="1" vertex="1">
          <mxGeometry x="150" y="196.08999999999992" width="60" height="30" as="geometry" />
        </mxCell>
        <mxCell id="FfYh_yq3HZvGGu9d9mUg-5" style="edgeStyle=orthogonalEdgeStyle;rounded=0;orthogonalLoop=1;jettySize=auto;html=1;entryX=0.5;entryY=1;entryDx=0;entryDy=0;startArrow=none;" parent="1" source="cDRfMIMBLAV0W6ACRIVu-55" target="FfYh_yq3HZvGGu9d9mUg-1" edge="1">
          <mxGeometry relative="1" as="geometry">
            <mxPoint x="178.2700000000001" y="342.8800000000001" as="sourcePoint" />
            <mxPoint x="178.265" y="289.0999999999999" as="targetPoint" />
            <Array as="points">
              <mxPoint x="180" y="315" />
              <mxPoint x="180" y="315" />
            </Array>
          </mxGeometry>
        </mxCell>
        <mxCell id="cDRfMIMBLAV0W6ACRIVu-55" value="" style="ellipse;whiteSpace=wrap;html=1;aspect=fixed;fillColor=#000000;" parent="1" vertex="1">
          <mxGeometry x="175" y="342.8700000000001" width="10" height="10" as="geometry" />
        </mxCell>
        <mxCell id="FfYh_yq3HZvGGu9d9mUg-6" value="" style="edgeStyle=orthogonalEdgeStyle;rounded=0;orthogonalLoop=1;jettySize=auto;html=1;exitX=0;exitY=0.5;exitDx=0;exitDy=0;entryX=1;entryY=0.5;entryDx=0;entryDy=0;endArrow=none;" parent="1" source="cDRfMIMBLAV0W6ACRIVu-17" target="cDRfMIMBLAV0W6ACRIVu-55" edge="1">
          <mxGeometry relative="1" as="geometry">
            <mxPoint x="296.61000000000286" y="347.17500000000007" as="sourcePoint" />
            <mxPoint x="115" y="347.8799999999999" as="targetPoint" />
          </mxGeometry>
        </mxCell>
        <mxCell id="FfYh_yq3HZvGGu9d9mUg-7" value="&lt;font face=&quot;Times New Roman&quot;&gt;&lt;span style=&quot;font-size: 24px&quot;&gt;$$r+e$$&lt;/span&gt;&lt;/font&gt;" style="text;html=1;strokeColor=none;fillColor=none;align=center;verticalAlign=middle;whiteSpace=wrap;rounded=0;fontStyle=1" parent="1" vertex="1">
          <mxGeometry x="245" y="352.86999999999983" width="60" height="30" as="geometry" />
        </mxCell>
        <mxCell id="jQJVZgNGBhaNbC6nDnzr-1" value="&lt;font face=&quot;Times New Roman&quot;&gt;&lt;span style=&quot;font-size: 24px&quot;&gt;&lt;i&gt;z&lt;/i&gt;&lt;/span&gt;&lt;/font&gt;" style="text;html=1;strokeColor=none;fillColor=none;align=center;verticalAlign=middle;whiteSpace=wrap;rounded=0;fontStyle=1" parent="1" vertex="1">
          <mxGeometry x="358.40000000000003" y="140.00000000000006" width="60" height="30" as="geometry" />
        </mxCell>
        <mxCell id="IMZThxllyC-tqZNlHwgO-3" value="" style="endArrow=classic;html=1;rounded=0;startArrow=none;entryX=0.5;entryY=-0.5;entryDx=0;entryDy=0;entryPerimeter=0;" parent="1" source="IMZThxllyC-tqZNlHwgO-2" target="cDRfMIMBLAV0W6ACRIVu-42" edge="1">
          <mxGeometry width="50" height="50" relative="1" as="geometry">
            <mxPoint x="331.2859601970266" y="63.73752271715375" as="sourcePoint" />
            <mxPoint x="290" y="160" as="targetPoint" />
          </mxGeometry>
        </mxCell>
        <mxCell id="IMZThxllyC-tqZNlHwgO-2" value="" style="ellipse;whiteSpace=wrap;html=1;aspect=fixed;fillColor=#000000;" parent="1" vertex="1">
          <mxGeometry x="330.01" y="56.79000000000002" width="10" height="10" as="geometry" />
        </mxCell>
        <mxCell id="W8KTpUzCm3jTnpzr6KMm-1" value="&lt;font face=&quot;Times New Roman&quot;&gt;path&lt;/font&gt;" style="edgeLabel;html=1;align=center;verticalAlign=middle;resizable=0;points=[];fontSize=24;labelBackgroundColor=none;fontStyle=1" vertex="1" connectable="0" parent="1">
          <mxGeometry x="742" y="187.29999999999998" as="geometry">
            <mxPoint x="-7" y="27" as="offset" />
          </mxGeometry>
        </mxCell>
      </root>
    </mxGraphModel>
  </diagram>
</mxfile>
